<svg width="48" height="38" viewBox="0 0 48 38" fill="none" xmlns="http://www.w3.org/2000/svg">
<g clip-path="url(#clip0_7322_396)">
<path d="M29.1426 8.62415H41.1404V12.0695H29.1426V8.62415Z" fill="white"/>
<path d="M29.1426 17.2375H41.1404V20.6829H29.1426V17.2375Z" fill="white"/>
<path d="M29.1426 25.8506H41.1404V29.2959H29.1426V25.8506Z" fill="white"/>
<path d="M44.5674 0.0111084H3.43187C2.52299 0.0120205 1.65161 0.375302 1.00893 1.02123C0.366264 1.66715 0.00481376 2.54295 0.00390625 3.45643V34.4643C0.00481376 35.3778 0.366264 36.2536 1.00893 36.8995C1.65161 37.5454 2.52299 37.9087 3.43187 37.9096H44.5674C45.4761 37.9082 46.3472 37.5448 46.9898 36.899C47.6324 36.2532 47.994 35.3776 47.9953 34.4643V3.45643C47.9944 2.54295 47.633 1.66715 46.9903 1.02123C46.3477 0.375302 45.4763 0.0120205 44.5674 0.0111084ZM3.43187 3.45643H22.2856V34.4643H3.43187V3.45643ZM25.7136 34.4643V3.45643H44.5674L44.5708 34.4643H25.7136Z" fill="white"/>
</g>
<defs>
<clipPath id="clip0_7322_396">
<rect width="48" height="37.92" fill="white"/>
</clipPath>
</defs>
</svg>
